<svg width="24" height="24" viewBox="0 0 24 24" fill="none" xmlns="http://www.w3.org/2000/svg">
<g clip-path="url(#clip0_4001_2260)">
<path d="M1.79452 11.4425C3.78941 10.3538 6.01627 9.44523 8.09693 8.53198C11.6765 7.03616 15.2702 5.56626 18.9003 4.1978C19.6066 3.96463 20.8756 3.7366 21 4.77354C20.9319 6.24133 20.6516 7.70052 20.4593 9.15972C19.9713 12.3686 19.4073 15.5665 18.8573 18.7649C18.6678 19.8302 17.3208 20.3817 16.4588 19.6999C14.3874 18.3137 12.3001 16.941 10.2551 15.5227C9.58522 14.8483 10.2064 13.8799 10.8047 13.3984C12.5108 11.7326 14.3201 10.3174 15.937 8.56558C16.3732 7.52209 15.0845 8.40152 14.6594 8.67097C12.3237 10.2656 10.0453 11.9575 7.58277 13.3589C6.32493 14.0449 4.8589 13.4587 3.60163 13.0759C2.47432 12.6135 0.822404 12.1476 1.7944 11.4425L1.79452 11.4425Z" fill="white"/>
</g>
<defs>
<clipPath id="clip0_4001_2260">
<rect width="24" height="24" fill="white"/>
</clipPath>
</defs>
</svg>
